<?xml version="1.0" encoding="utf-8"?>
<!-- Generator: Adobe Illustrator 22.1.0, SVG Export Plug-In . SVG Version: 6.00 Build 0)  -->
<svg version="1.1" id="LOGO_BCI" xmlns="http://www.w3.org/2000/svg" xmlns:xlink="http://www.w3.org/1999/xlink" x="0px" y="0px"
	 viewBox="0 0 600 135.4" style="enable-background:new 0 0 600 135.4;" xml:space="preserve">
<g>
	<rect x="315.8" y="47.7" style="fill:#1D1D1B;" width="17.3" height="74.7"/>
	<g>
		<path style="fill:#1D1D1B;" d="M382,115.1l2-0.6c1.8,3.9,5.3,6.6,9.7,6.6c5.3,0,8.8-2.8,8.8-8c0-5.1-4.3-8-9-9.8
			c-4.9-2-10.3-4.5-10.3-10.6c0-4.6,3.6-8.1,10.1-8.1c4.6,0,8.5,2.4,9.7,6.1l-1.9,0.6c-1.3-3.1-3.9-4.8-7.9-4.8
			c-4.9,0-7.9,2.4-7.9,6.4c0,4.8,4.6,6.8,9.1,8.7c4.7,1.9,10.2,4.9,10.2,11.8c0,6.3-4.5,9.8-10.9,9.8C388,123,383.7,119.3,382,115.1
			z"/>
		<path style="fill:#1D1D1B;" d="M411.9,108.7c0-9,4.6-14.2,10.9-14.2c5.8,0,9.8,4.3,9.8,14.2v0.6H414c0.3,8.1,3.6,11.8,9,11.8
			c2.1,0,4.4-0.7,6.4-2.3l1.1,1.4c-1.9,1.6-4.7,2.8-7.7,2.8C415.9,123,411.9,117.5,411.9,108.7z M430.7,107.5
			c-0.1-9.1-4.6-11.3-7.8-11.3c-4.8,0-8.4,3.4-8.8,11.3H430.7z"/>
		<path style="fill:#1D1D1B;" d="M446.7,131.9c8-0.4,11-3.3,11-8.6v-5.5c-1.7,3.5-4.7,5.1-8.1,5.1c-5.6,0-10.4-4.8-10.4-14.3
			c0-8.9,4.3-14.2,10.6-14.2c4,0,6.8,2.4,7.9,4.6v-3.9h1.9v28.4c0,7.8-6,9.7-11.9,10.1L446.7,131.9z M457.7,115.2v-13.6
			c-1.8-3.4-4.8-5.2-7.9-5.2c-5.5,0-8.6,4.4-8.6,12.3s3.8,12.3,8.4,12.3C453.4,121,456.3,118.2,457.7,115.2z"/>
		<path style="fill:#1D1D1B;" d="M486.6,117.7c-1.8,4-5.1,5.2-8,5.2c-5.7,0-8.8-3.6-8.8-11.2V95.1h1.9v17c0,6.6,2.8,9,7,9
			c4.5,0,7.9-2.7,7.9-10.3V95.1h1.9v27.2h-1.9V117.7z"/>
		<path style="fill:#1D1D1B;" d="M499,95.1h1.9v5.8c1.7-4.5,4.8-6.4,8-6.4c1.8,0,3,0.5,3.6,1.1l-0.3,1.9c-0.7-0.4-1.9-0.9-3.6-0.9
			c-3.3,0-7.7,2.8-7.7,10.6v15.1H499V95.1z"/>
		<path style="fill:#1D1D1B;" d="M517,108.8c0-8.9,4.3-14.3,10.7-14.3c6.4,0,10.7,5.2,10.7,14.2c0,8.9-4.3,14.3-10.7,14.3
			C521.3,123,517,117.8,517,108.8z M536.4,108.7c0-7.7-3-12.3-8.7-12.3c-5.6,0-8.7,4.4-8.7,12.3c0,7.7,3,12.3,8.7,12.3
			C533.3,121,536.4,116.5,536.4,108.7z"/>
		<path style="fill:#1D1D1B;" d="M545.6,118.9l1.5-1.3c1.6,1.8,4.1,3.6,7,3.6c3.8,0,6.2-1.7,6.2-5.2c0-3.8-3.6-5.6-7.4-7.1
			c-4.5-1.6-7.4-3.6-7.4-7.7c0-3.8,3-6.7,8-6.7c3,0,5.9,1.3,7.8,3.4l-1.4,1.2c-1.5-1.4-3.6-2.8-6.4-2.8c-3.8,0-6,2-6,4.9
			c0,3.5,3.1,4.7,6.6,6.1c4.6,1.9,8.2,3.5,8.2,8.6c0,4.1-2.9,7-8.1,7C550.5,123,547.6,121.1,545.6,118.9z"/>
	</g>
	<path style="fill:#1D1D1B;" d="M324.4,20.9c-5.2,0-9.5,4.3-9.5,9.5c0,5.2,4.3,9.5,9.5,9.5c5.2,0,9.5-4.3,9.5-9.5
		C333.9,25.1,329.6,20.9,324.4,20.9 M280.1,64.7c5.8,0,10.5,2.2,15.5,7.2l11.9-12.5c-5.8-5.7-14.1-11.6-27.2-11.6
		c-20.6,0-37.3,17-37.3,37.9v0.2c0,20.9,16.7,37.9,37.2,37.9c10.4,0,19.1-3.7,26.7-11.2l-12.3-11.9c-4.5,4.2-9,6.1-14.2,6.1
		c-11,0-20-9.5-20-21.1v-0.2C260.3,73.9,269,64.7,280.1,64.7 M226.6,71.4c4.9-5,7.2-11.5,7.2-18c0-15.1-8-27.5-31.8-27.5h-33.7v96.5
		h34.3c25.4,0,34.1-12.9,34.1-29.1C236.8,84.7,233.7,76.3,226.6,71.4 M185.7,43h16.7c10.8,0,12.6,5.1,12.6,10.4
		c0,5.1-2.2,10.6-11.6,10.6h-17.8V43z M203.2,105.3h-17.5V81.1h17.8c10.7,0,14.7,3.9,14.7,12.2C218.1,99.3,215.6,105.3,203.2,105.3"
		/>
	<path style="fill:#008E39;" d="M119.5,77.9c0,0,14.6,3.9,10,24.4h0c-0.3,1.1-0.3,2.2-0.2,3.4c0.5,6.1,5.8,10.5,11.9,10
		c6.1-0.5,10.5-5.8,10-11.9c-1-14.3-27.9-31.7-31.5-31.3c0,0-2.1,0.1-2.2,2.8C117.5,77.5,119.5,77.9,119.5,77.9"/>
	<path style="fill:#FFD700;" d="M115,84.7c0,0,9.5,2.5,6.6,15.9h0c0,0-3.1,12.6-23.3,16c-22.9,3.8-22.5-4.6-22.5-4.6
		c-0.2-4.2-1.8-9.2,20.9-23C96.7,89,108.1,82,115,84.7"/>
	<path style="fill:#E52C37;" d="M38.7,119c0.2,6.5,5,11.9,11.4,12.9c0.9,0.1,1.8,0.2,2.7,0.2c3.6-0.1,7-1.7,9.4-4.3
		c2.5-2.7,3.7-6.1,3.6-9.7c0-9.8,4.4-17.1,13.3-23.9c8-5.9,19.5-13.1,35.6-22.1c20.1-10.7,33.1-23.3,36-33.5l0.1-0.3
		c0.4-1.3,0.5-2.6,0.4-3.9c-0.2-6.5-5-11.9-11.4-12.9c-0.9-0.1-1.8-0.2-2.7-0.2c-3.6,0.1-7,1.7-9.4,4.3c-2.5,2.7-3.7,6.1-3.6,9.7
		c0,10.3-6.2,17.1-14.6,25.1c-17.9,14-34.4,20.9-34.4,20.9c-20.1,10.7-33.1,23.3-36,33.5l-0.1,0.3C38.8,116.4,38.6,117.7,38.7,119"
		/>
	<path style="fill:#2D6BB2;" d="M60,22.6c1.1,18.2,26.3,39.3,41.9,47.8c4.2,2.3,9.4,2.9,11.6,2.2c7.1-3.2-0.5-6-0.5-6
		s-24.5-6.7-16.6-41.2h0c0.4-1.8,0.6-3.7,0.5-5.7C96.1,9.6,87.2,2,77,2.7C66.9,3.5,59.2,12.4,60,22.6"/>
</g>
</svg>
